<svg xmlns="http://www.w3.org/2000/svg" width="1074" height="673">
  <g fill="none" fill-rule="evenodd" transform="matrix(1 0 0 -1 -13 678)">
    <path stroke="#9C6ADE" stroke-width="4" d="M980.273 298.192l24.254 14.003" stroke-linecap="square" opacity=".89"/>
    <path stroke="#9C6ADE" stroke-width="4" d="M883.485 182.977l5.882 20.51M527.196 550.926l-12.003 20.79" stroke-linecap="square" opacity=".96"/>
    <path stroke="#9C6ADE" stroke-width="4" d="M524.12 130.319l-17.148 10.303" stroke-linecap="square" opacity=".88"/>
    <path stroke="#007ACE" stroke-width="5" d="M1052.112 467.23l3.015 11.252-9.77 6.345-9.053-7.332 4.174-10.876 11.634.61z" opacity=".73"/>
    <path stroke="#007ACE" stroke-width="5" d="M352.23 622.099l-11.35 2.62-6-9.985 7.643-8.792 10.723 4.552-1.015 11.605z" opacity=".9"/>
    <path stroke="#007ACE" stroke-width="5" d="M360.175 189.093l-12.17 1.279-4.977-11.18 9.094-8.188 10.598 6.119-2.545 11.97z" opacity=".96"/>
    <path stroke="#BF0711" stroke-width="4" d="M42.122 25.908l-8.045 7.502-7.502-8.045 8.045-7.502z" opacity=".99"/>
    <path stroke="#BF0711" stroke-width="4" d="M843.486 237.263l9.548-10.239-10.24-9.548-9.547 10.24z" opacity=".84"/>
    <path stroke="#BF0711" stroke-width="4" d="M953.381 73.944l11.81-12.229 12.228 11.81-11.809 12.228z" opacity=".93"/>
    <path stroke="#BF0711" stroke-width="4" d="M934.154 157.404l8.03 17.22-17.22 8.03-8.03-17.22z" opacity=".8"/>
    <path stroke="#BF0711" stroke-width="4" d="M755.854 198.62l18.17-5.556-5.556-18.17-18.17 5.556z" opacity=".91"/>
    <path stroke="#BF0711" stroke-width="4" d="M188.183 225.38l-3.907 9.205 9.205 3.907 3.907-9.205z" opacity=".79"/>
    <path stroke="#BF0711" stroke-width="4" d="M957.099 410.57l-.89-16.977-16.976.89.89 16.976z" opacity=".89"/>
    <path stroke="#BF0711" stroke-width="4" d="M1073.123 129.95l-9.185 10.566 10.566 9.185 9.185-10.566z" opacity=".93"/>
    <path stroke="#BF0711" stroke-width="4" d="M888.3 31.284l11.982-18.451 18.45 11.982-11.981 18.45z" opacity=".77"/>
    <path stroke="#BF0711" stroke-width="4" d="M349.754 114.392l-8.387 12.435 12.435 8.388 8.388-12.435z" opacity=".7"/>
    <path stroke="#BF0711" stroke-width="4" d="M256.693 337.386l-.367 20.997 20.997.367.367-20.997z" opacity=".86"/>
    <path stroke="#BF0711" stroke-width="4" d="M1083.774 183.071l-18.988.663.663 18.989 18.988-.663zm-509.496-4.986l-3.364-12.557-12.558 3.365 3.365 12.557z" opacity=".98"/>
    <path stroke="#BF0711" stroke-width="4" d="M845.257 454.765l-12.303-18.239-18.239 12.303 12.303 18.239z" opacity=".77"/>
    <path stroke="#BF0711" stroke-width="4" d="M510.473 606.443l21.747 7.488-7.488 21.747-21.747-7.489z" opacity=".78"/>
    <path stroke="#BF0711" stroke-width="4" d="M347.168 105.258l3.3-18.711 18.71 3.3-3.299 18.71z" opacity=".96"/>
    <path stroke="#BF0711" stroke-width="4" d="M187.927 187.923l3.3-18.71-18.712-3.3-3.3 18.711z" opacity=".89"/>
    <path stroke="#BF0711" stroke-width="4" d="M250.329 53.652l21.996-.384-.384-21.997-21.996.384z" opacity=".96"/>
    <path stroke="#BF0711" stroke-width="4" d="M149.443 523.685l-19.033 8.875-8.875-19.033 19.033-8.875z" opacity=".77"/>
    <path stroke="#BF0711" stroke-width="4" d="M355.737 430.135l-6.89 11.025 11.025 6.889 6.89-11.025z" opacity=".88"/>
    <path stroke="#BF0711" stroke-width="4" d="M869.928 388.025l14.943 1.307-1.307 14.943-14.943-1.307z" opacity=".94"/>
    <path stroke="#BF0711" stroke-width="4" d="M458.825 237.1l-15.563-10.898-10.898 15.564 15.564 10.898z" opacity=".98"/>
    <path stroke="#BF0711" stroke-width="4" d="M102.254 124.905l4.385 14.344-14.344 4.386-4.386-14.345z" opacity=".89"/>
    <path stroke="#BF0711" stroke-width="4" d="M419.657 378.418l-5.555-18.17 18.17-5.555 5.555 18.17z" opacity=".96"/>
    <path stroke="#BF0711" stroke-width="4" d="M229.242 317.57l18.353 4.917 4.917-18.353-18.352-4.917z" opacity=".81"/>
    <path stroke="#BF0711" stroke-width="4" d="M263.047 86.918l11.743 17.41 17.41-11.743-11.743-17.41z" opacity=".74"/>
    <path stroke="#BF0711" stroke-width="4" d="M75.658 255.192l13.365 6.81 6.81-13.366-13.366-6.81z" opacity=".9"/>
    <path stroke="#BF0711" stroke-width="4" d="M256.141 405.806l-9.193 7.713 7.714 9.193 9.192-7.714z" opacity=".85"/>
    <path stroke="#BF0711" stroke-width="4" d="M44.503 86.77l4.225 7.947 7.946-4.225-4.225-7.947z" opacity=".86"/>
    <path stroke="#BF0711" stroke-width="4" d="M387.42 570.583l-18.06-18.702 18.702-18.062 18.061 18.703z" opacity=".74"/>
    <path stroke="#50B83C" stroke-width="4" d="M511.075 673.445l-7.257-6.184 7.85-3.332-.593 9.516z" opacity=".7"/>
    <path stroke="#50B83C" stroke-width="4" d="M1012.212 360.444l3.329 8.934 5.816-6.237-9.145-2.697z" opacity=".86"/>
    <path stroke="#50B83C" stroke-width="4" d="M22.655 345.618l1.09-8.346 6.24 4.21-7.33 4.136z" opacity=".83"/>
    <path stroke="#50B83C" stroke-width="4" d="M342.343 514.481l-6.09 4.021 5.653 3.264.437-7.285z" opacity=".98"/>
    <path stroke="#50B83C" stroke-width="4" d="M182.246 127.564l-2.846-1.541.195 3.397 2.65-1.856zm2.89-2.024l2.65-1.856-3.125-1.345.475 3.201zm.578 3.902l.587 3.957 2.93-2.052-3.517-1.905zm0 0l-3.468-1.878 2.89-2.024.578 3.902z"/>
    <path stroke="#50B83C" stroke-width="4" d="M598.8 78.478l3.148.752-1.068-3.231-2.08 2.479zm-3.553 4.234l-2.08 2.48 3.367.49-1.287-2.97zm-2.458-5.67l-1.591-3.67-2.3 2.74 3.89.93zm0 0l6.011 1.436-3.553 4.234-2.458-5.67z" opacity=".96"/>
    <path stroke="#50B83C" stroke-width="4" d="M45.508 612.667l2.87 1.497-2.926 1.738.056-3.235zm.08-4.527l.056-3.236 2.863 1.84-2.92 1.396zm-4.567 2.184l-3.609 1.726.063-3.577 3.546 1.851zm0 0l4.487 2.343.08-4.527-4.567 2.184z" opacity=".79"/>
    <path stroke="#50B83C" stroke-width="4" d="M865.869 304.119l.697 3.16-3.212-1.124 2.515-2.036zm4.296-3.48l2.515-2.036.431 3.375-2.946-1.338zm-5.627-2.556l-3.642-1.654 2.78-2.252.862 3.906zm0 0l1.33 6.036 4.297-3.48-5.627-2.556z" opacity=".89"/>
    <path stroke="#50B83C" stroke-width="3" d="M626.166 390.169l8.985-1.493-4.788-6.59-4.197 8.083z" opacity=".82"/>
    <path stroke="#50B83C" stroke-width="4" d="M176.869 526.067l6.162-11.32-11.52-.402 5.358 11.722z" opacity=".96"/>
    <path stroke="#50B83C" stroke-width="4" d="M751.164 94.073l-16.735 4.62 10.39 11.54 6.345-16.16z" opacity=".7"/>
    <path stroke="#50B83C" stroke-width="4" d="M232.051 630.827l-13.944-1.327 6.64-10.624 7.304 11.95z" opacity=".84"/>
    <path stroke="#50B83C" stroke-width="4" d="M130.452 458.358l-8.867-3.505.744 8.496 8.123-4.991z" opacity=".97"/>
    <path stroke="#50B83C" stroke-width="4" d="M660.547 468.853l-9.451 1.255 2.776-8.063 6.675 6.808z" opacity=".9"/>
    <path stroke="#50B83C" stroke-width="4" d="M755.102 278.947l-6.41 3.49-.228-6.524 6.638 3.034z" opacity=".96"/>
    <path stroke="#50B83C" stroke-width="4" d="M645.478 114.374l2.426-2.142.575 3.354-3-1.212zm-2.344-.947l-3-1.212 2.743-2.014.257 3.226zm.225 2.817l.319 3.987-3.318-1.34 3-2.647zm0 0l2.12-1.87-2.345-.947.225 2.817z" opacity=".82"/>
    <path stroke="#50B83C" stroke-width="4" d="M23.181 199.967l.524-8.4-6.93 2.94 6.406 5.46z" opacity=".81"/>
    <path stroke="#50B83C" stroke-width="4" d="M425.55 611.765l-10.403-2.294 5.996-7.405 4.407 9.699z" opacity=".82"/>
    <path stroke="#50B83C" stroke-width="4" d="M716.562 398.665l-1.694 2.757-1.53-3.04 3.224.283zm4.51.395l3.224.282-2.034 2.727-1.19-3.01zm-1.86-4.708l-1.47-3.72 3.564.311-2.094 3.409zm0 0l-2.65 4.313 4.51.395-1.86-4.708z" opacity=".83"/>
    <path stroke="#50B83C" stroke-width="4" d="M629.107 31.071l1.922-2.603-3.391-.28 1.469 2.883zm1.148 2.253l1.469 2.883 1.766-2.908-3.235.025zm-2.827.021l-4 .03 1.625 3.188 2.375-3.218zm0 0l1.679-2.274 1.148 2.253-2.827.021z" opacity=".81"/>
    <path stroke="#50B83C" stroke-width="4" d="M482.953 15.295l3.23-.194-1.612 2.997-1.618-2.803zm-2.264-3.921l-1.618-2.803 3.401.102-1.783 2.7zm-2.789 4.224l-2.204 3.339-1.789-3.099 3.993-.24zm0 0l5.053-.303-2.264-3.921-2.789 4.224z" opacity=".83"/>
    <path stroke="#50B83C" stroke-width="4" d="M1041.644 348.067l11.316 10.034 3.501-13.067-14.817 3.033z" opacity=".89"/>
    <path stroke="#50B83C" stroke-width="4" d="M899.212 145.616l12.323 8.768-11.944 6.351-.379-15.12z" opacity=".86"/>
    <path stroke="#50B83C" stroke-width="4" d="M571.782 459.45l10.823 13.574-15.189 3.229 4.366-16.803z" opacity=".97"/>
    <circle cx="999.014" cy="37.027" r="8.5" stroke="#9C6ADE" stroke-width="5" opacity=".86" transform="rotate(-149 999.014 37.027)"/>
    <circle cx="318.825" cy="395.321" r="6" stroke="#9C6ADE" stroke-width="5" opacity=".83" transform="rotate(-67 318.825 395.32)"/>
    <circle cx="350.52" cy="16.78" r="9" stroke="#9C6ADE" stroke-width="5" opacity=".85" transform="rotate(-148 355.332 0)"/>
    <circle cx="533.842" cy="394.22" r="5.5" stroke="#9C6ADE" stroke-width="5" opacity=".91" transform="rotate(-115 533.842 394.22)"/>
    <circle cx="520.226" cy="358.775" r="5.5" stroke="#9C6ADE" stroke-width="5" opacity=".85" transform="rotate(1 -40591.374 0)"/>
    <circle cx="449.461" cy="442.718" r="5" stroke="#9C6ADE" stroke-width="5" opacity=".9" transform="rotate(167 449.46 442.718)"/>
    <circle cx="100.769" cy="403.111" r="7.5" stroke="#9C6ADE" stroke-width="5" opacity=".73" transform="rotate(43 100.77 403.11)"/>
    <circle cx="553.003" cy="228.013" r="4" stroke="#9C6ADE" stroke-width="5" opacity=".99" transform="rotate(-105 553.003 228.013)"/>
    <circle cx="199.764" cy="464.443" r="7.5" stroke="#9C6ADE" stroke-width="5" opacity=".96" transform="rotate(85 -307.087 0)"/>
    <path stroke="#50B83C" stroke-width="3" d="M799.56 383.805c9.922-7.95 10.98-18.155 3.174-30.616l25-12.829" opacity=".97"/>
    <path stroke="#50B83C" stroke-width="3" d="M876.033 74.788c-10.116-.799-16.458 4.44-19.026 15.715l-21.437-6.11" opacity=".9"/>
    <path stroke="#50B83C" stroke-width="3" d="M561.586 537.981c3.74-8.038 1.49-14.886-6.749-20.546l11.462-15.64" opacity=".79"/>
    <path stroke="#50B83C" stroke-width="3" d="M1067.714 256.656c-8.977-7.386-18.375-6.645-28.193 2.223l-16.124-19.785" opacity=".95"/>
    <path stroke="#50B83C" stroke-width="3" d="M440.917 380.71c-14.99 6.672-27.382 1.945-37.178-14.18l-29.46 20.996"/>
    <path stroke="#50B83C" stroke-width="3" d="M718.952 233.152c10.704 1.988 15.825 9.176 15.365 21.565l23.904-.36" opacity=".93"/>
    <path stroke="#50B83C" stroke-width="3" d="M73.581 532.209c3.58 13.168 13.12 18.734 28.62 16.697l1.974 29.977" opacity=".82"/>
    <path stroke="#50B83C" stroke-width="3" d="M733.006 435.973c-9.298 2.968-16.213-.764-20.745-11.196l-18.868 10.594" opacity=".99"/>
    <path stroke="#50B83C" stroke-width="3" d="M419.59 283.151c-12.986-2.682-21.802 3.34-26.45 18.066l-27-11.614" opacity=".92"/>
    <path stroke="#50B83C" stroke-width="3" d="M686.996 321.226c6.042 9.475 14.91 11.328 26.603 5.558l8.894 23.224" opacity=".72"/>
    <path stroke="#50B83C" stroke-width="3" d="M473.534 282.674c12.43 7.918 23.993 5.202 34.691-8.148l23.437 22.69" opacity=".96"/>
    <path stroke="#50B83C" stroke-width="3" d="M249.932 529.614c-9.39 10.898-8.636 22.52 2.26 34.863l-25.007 19.41" opacity=".81"/>
    <path stroke="#50B83C" stroke-width="3" d="M161.254 286.027c-10.908-4.943-19.918-1.46-27.03 10.45l-21.444-15.542" opacity=".82"/>
  </g>
</svg>